# xmcd CD database file
#
# Track frame offsets:
#	150
#	19919
#	36395
#	52953
#	78354
#	100789
#	127391
#	146041
#	179475
#	197928
#	222463
#
# Disc length: 3357 seconds
#
# Revision: 0
# Processed by: cddbd v1.5.1PL2 Copyright (c) Steve Scherf et al.
# Submitted via: CDex 1.60beta1
#
DISCID=aa0d1b0b
DTITLE=Glauco Sagebin - When Baden Meets Trane
DYEAR=2003
DGENRE=Jazz
TTITLE0=When Baden Meets Trane
TTITLE1=Fascinating Rhythm
TTITLE2=Olha Maria
TTITLE3=Short Story
TTITLE4=Earlier Departure
TTITLE5=Villa
TTITLE6=Nada Como ter Amor
TTITLE7=Luiza
TTITLE8=Rio Negro
TTITLE9=Pra Dizer Adeus
TTITLE10=Laura
EXTD=YEAR: 2003
EXTT0=
EXTT1=
EXTT2=
EXTT3=
EXTT4=
EXTT5=
EXTT6=
EXTT7=
EXTT8=
EXTT9=
EXTT10=
PLAYORDER=
